<svg width="16" height="16" viewBox="0 0 16 16" fill="none" xmlns="http://www.w3.org/2000/svg">
<g clip-path="url(#clip0_8445_53)">
<rect width="16" height="16" fill="#4C3AB3"/>
<g filter="url(#filter0_i_8445_53)">
<circle cx="11.434" cy="6.06604" r="3.06604" fill="url(#paint0_linear_8445_53)"/>
</g>
<g filter="url(#filter1_if_8445_53)">
<circle cx="11.434" cy="6.06604" r="3.06604" fill="url(#paint1_linear_8445_53)"/>
</g>
<g filter="url(#filter2_f_8445_53)">
<ellipse cx="7.7854" cy="11.7382" rx="4.69104" ry="2.85142" fill="#A9BCDB" style="mix-blend-mode:overlay"/>
</g>
<g filter="url(#filter3_bi_8445_53)">
<mask id="path-4-inside-1_8445_53" fill="white">
<path fill-rule="evenodd" clip-rule="evenodd" d="M11.9864 11.7076H8.26318C8.25704 11.7076 8.2509 11.7076 8.24475 11.7076C8.2386 11.7076 8.23246 11.7076 8.22632 11.7076H4.2094V11.7049C4.17118 11.7067 4.13275 11.7076 4.09412 11.7076C2.66143 11.7076 1.5 10.4721 1.5 8.94814C1.5 7.42415 2.66143 6.1887 4.09412 6.1887C4.32109 6.1887 4.54125 6.21971 4.75107 6.27796C5.29478 4.79032 6.65401 3.7359 8.24475 3.7359C10.2172 3.7359 11.8337 5.35708 11.9809 7.41514L11.9918 7.41511C13.1061 7.41511 14.0095 8.376 14.0095 9.56133C14.0095 10.7055 13.1678 11.6406 12.1071 11.7041V11.7076H11.9972C11.9954 11.7076 11.9936 11.7076 11.9918 11.7076C11.99 11.7076 11.9882 11.7076 11.9864 11.7076Z"/>
</mask>
<path fill-rule="evenodd" clip-rule="evenodd" d="M11.9864 11.7076H8.26318C8.25704 11.7076 8.2509 11.7076 8.24475 11.7076C8.2386 11.7076 8.23246 11.7076 8.22632 11.7076H4.2094V11.7049C4.17118 11.7067 4.13275 11.7076 4.09412 11.7076C2.66143 11.7076 1.5 10.4721 1.5 8.94814C1.5 7.42415 2.66143 6.1887 4.09412 6.1887C4.32109 6.1887 4.54125 6.21971 4.75107 6.27796C5.29478 4.79032 6.65401 3.7359 8.24475 3.7359C10.2172 3.7359 11.8337 5.35708 11.9809 7.41514L11.9918 7.41511C13.1061 7.41511 14.0095 8.376 14.0095 9.56133C14.0095 10.7055 13.1678 11.6406 12.1071 11.7041V11.7076H11.9972C11.9954 11.7076 11.9936 11.7076 11.9918 11.7076C11.99 11.7076 11.9882 11.7076 11.9864 11.7076Z" fill="url(#paint2_linear_8445_53)"/>
<path d="M11.9864 11.7076L11.9893 10.7076H11.9864V11.7076ZM8.26318 11.7076V10.7075L8.25806 10.7076L8.26318 11.7076ZM8.22632 11.7076L8.23144 10.7076H8.22632V11.7076ZM4.2094 11.7076H3.2094V12.7076H4.2094V11.7076ZM4.2094 11.7049H5.2094V10.6573L4.16293 10.706L4.2094 11.7049ZM4.75107 6.27796L4.48357 7.24152L5.37332 7.48853L5.6903 6.62124L4.75107 6.27796ZM11.9809 7.41514L10.9834 7.48647L11.0501 8.41797L11.9839 8.41513L11.9809 7.41514ZM11.9918 7.41511L11.9918 6.4151L11.9888 6.41511L11.9918 7.41511ZM12.1071 11.7041L12.0473 10.7059L11.1071 10.7622V11.7041H12.1071ZM12.1071 11.7076V12.7076H13.1071V11.7076H12.1071ZM11.9972 11.7076L11.9972 10.7075L11.9944 10.7076L11.9972 11.7076ZM11.9864 10.7076H8.26318V12.7076H11.9864V10.7076ZM8.25806 10.7076C8.25363 10.7076 8.24919 10.7076 8.24475 10.7076V12.7076C8.2526 12.7076 8.26045 12.7076 8.26831 12.7075L8.25806 10.7076ZM8.24475 10.7076C8.24031 10.7076 8.23587 10.7076 8.23144 10.7076L8.22119 12.7075C8.22904 12.7076 8.23689 12.7076 8.24475 12.7076V10.7076ZM8.22632 10.7076H4.2094V12.7076H8.22632V10.7076ZM5.2094 11.7076V11.7049H3.2094V11.7076H5.2094ZM4.16293 10.706C4.14019 10.707 4.11725 10.7076 4.09412 10.7076V12.7076C4.14825 12.7076 4.20217 12.7063 4.25586 12.7038L4.16293 10.706ZM4.09412 10.7076C3.27101 10.7076 2.5 9.97894 2.5 8.94814H0.5C0.5 10.9653 2.05184 12.7076 4.09412 12.7076V10.7076ZM2.5 8.94814C2.5 7.91733 3.27101 7.1887 4.09412 7.1887V5.1887C2.05184 5.1887 0.5 6.93096 0.5 8.94814H2.5ZM4.09412 7.1887C4.22953 7.1887 4.35974 7.20714 4.48357 7.24152L5.01857 5.3144C4.72277 5.23228 4.41265 5.1887 4.09412 5.1887V7.1887ZM5.6903 6.62124C6.10558 5.48502 7.1179 4.7359 8.24475 4.7359V2.7359C6.19011 2.7359 4.48398 4.09563 3.81184 5.93468L5.6903 6.62124ZM8.24475 4.7359C9.63744 4.7359 10.8696 5.89481 10.9834 7.48647L12.9783 7.34381C12.7978 4.81935 10.797 2.7359 8.24475 2.7359V4.7359ZM11.9839 8.41513L11.9948 8.4151L11.9888 6.41511L11.9779 6.41514L11.9839 8.41513ZM11.9918 8.41511C12.4965 8.41511 13.0095 8.86919 13.0095 9.56133H15.0095C15.0095 7.88282 13.7157 6.41511 11.9918 6.41511V8.41511ZM13.0095 9.56133C13.0095 10.2273 12.5306 10.677 12.0473 10.7059L12.1669 12.7023C13.8049 12.6042 15.0095 11.1838 15.0095 9.56133H13.0095ZM11.1071 11.7041V11.7076H13.1071V11.7041H11.1071ZM12.1071 10.7076H11.9972V12.7076H12.1071V10.7076ZM11.9944 10.7076C11.9936 10.7076 11.9927 10.7076 11.9918 10.7076V12.7076C11.9945 12.7076 11.9973 12.7076 12.0001 12.7075L11.9944 10.7076ZM11.9918 10.7076C11.9909 10.7076 11.99 10.7076 11.9893 10.7076L11.9835 12.7075C11.9863 12.7076 11.9891 12.7076 11.9918 12.7076V10.7076Z" fill="white" fill-opacity="0.1" style="mix-blend-mode:overlay" mask="url(#path-4-inside-1_8445_53)"/>
</g>
<g filter="url(#filter4_if_8445_53)">
<circle cx="11.434" cy="6.06604" r="3.06604" fill="url(#paint3_linear_8445_53)" fill-opacity="0.5"/>
</g>
<rect x="8.36792" y="7.66034" width="0.490566" height="3.00472" rx="0.245283" fill="#757575"/>
<rect x="9.65564" y="8.39624" width="0.490566" height="3.80189" rx="0.245283" fill="#757575"/>
<rect x="10.9434" y="7.72168" width="0.490566" height="3.00472" rx="0.245283" fill="#757575"/>
</g>
<defs>
<filter id="filter0_i_8445_53" x="8.36792" y="3" width="6.13208" height="10.1321" filterUnits="userSpaceOnUse" color-interpolation-filters="sRGB">
<feFlood flood-opacity="0" result="BackgroundImageFix"/>
<feBlend mode="normal" in="SourceGraphic" in2="BackgroundImageFix" result="shape"/>
<feColorMatrix in="SourceAlpha" type="matrix" values="0 0 0 0 0 0 0 0 0 0 0 0 0 0 0 0 0 0 127 0" result="hardAlpha"/>
<feOffset dy="4"/>
<feGaussianBlur stdDeviation="8"/>
<feComposite in2="hardAlpha" operator="arithmetic" k2="-1" k3="1"/>
<feColorMatrix type="matrix" values="0 0 0 0 1 0 0 0 0 1 0 0 0 0 1 0 0 0 1 0"/>
<feBlend mode="overlay" in2="shape" result="effect1_innerShadow_8445_53"/>
</filter>
<filter id="filter1_if_8445_53" x="-23.6321" y="-29" width="70.1321" height="70.1321" filterUnits="userSpaceOnUse" color-interpolation-filters="sRGB">
<feFlood flood-opacity="0" result="BackgroundImageFix"/>
<feBlend mode="normal" in="SourceGraphic" in2="BackgroundImageFix" result="shape"/>
<feColorMatrix in="SourceAlpha" type="matrix" values="0 0 0 0 0 0 0 0 0 0 0 0 0 0 0 0 0 0 127 0" result="hardAlpha"/>
<feOffset dy="4"/>
<feGaussianBlur stdDeviation="8"/>
<feComposite in2="hardAlpha" operator="arithmetic" k2="-1" k3="1"/>
<feColorMatrix type="matrix" values="0 0 0 0 1 0 0 0 0 1 0 0 0 0 1 0 0 0 1 0"/>
<feBlend mode="overlay" in2="shape" result="effect1_innerShadow_8445_53"/>
<feGaussianBlur stdDeviation="16" result="effect2_foregroundBlur_8445_53"/>
</filter>
<filter id="filter2_f_8445_53" x="-40.9056" y="-35.1132" width="97.3821" height="93.7028" filterUnits="userSpaceOnUse" color-interpolation-filters="sRGB">
<feFlood flood-opacity="0" result="BackgroundImageFix"/>
<feBlend mode="normal" in="SourceGraphic" in2="BackgroundImageFix" result="shape"/>
<feGaussianBlur stdDeviation="22" result="effect1_foregroundBlur_8445_53"/>
</filter>
<filter id="filter3_bi_8445_53" x="-14.5" y="-12.2641" width="44.5094" height="39.9717" filterUnits="userSpaceOnUse" color-interpolation-filters="sRGB">
<feFlood flood-opacity="0" result="BackgroundImageFix"/>
<feGaussianBlur in="BackgroundImageFix" stdDeviation="8"/>
<feComposite in2="SourceAlpha" operator="in" result="effect1_backgroundBlur_8445_53"/>
<feBlend mode="normal" in="SourceGraphic" in2="effect1_backgroundBlur_8445_53" result="shape"/>
<feColorMatrix in="SourceAlpha" type="matrix" values="0 0 0 0 0 0 0 0 0 0 0 0 0 0 0 0 0 0 127 0" result="hardAlpha"/>
<feOffset dy="4"/>
<feGaussianBlur stdDeviation="9"/>
<feComposite in2="hardAlpha" operator="arithmetic" k2="-1" k3="1"/>
<feColorMatrix type="matrix" values="0 0 0 0 1 0 0 0 0 1 0 0 0 0 1 0 0 0 1 0"/>
<feBlend mode="normal" in2="shape" result="effect2_innerShadow_8445_53"/>
</filter>
<filter id="filter4_if_8445_53" x="-23.6321" y="-29" width="70.1321" height="70.1321" filterUnits="userSpaceOnUse" color-interpolation-filters="sRGB">
<feFlood flood-opacity="0" result="BackgroundImageFix"/>
<feBlend mode="normal" in="SourceGraphic" in2="BackgroundImageFix" result="shape"/>
<feColorMatrix in="SourceAlpha" type="matrix" values="0 0 0 0 0 0 0 0 0 0 0 0 0 0 0 0 0 0 127 0" result="hardAlpha"/>
<feOffset dy="4"/>
<feGaussianBlur stdDeviation="8"/>
<feComposite in2="hardAlpha" operator="arithmetic" k2="-1" k3="1"/>
<feColorMatrix type="matrix" values="0 0 0 0 1 0 0 0 0 1 0 0 0 0 1 0 0 0 1 0"/>
<feBlend mode="overlay" in2="shape" result="effect1_innerShadow_8445_53"/>
<feGaussianBlur stdDeviation="16" result="effect2_foregroundBlur_8445_53"/>
</filter>
<linearGradient id="paint0_linear_8445_53" x1="9.7783" y1="7.96698" x2="12.4458" y2="4.3184" gradientUnits="userSpaceOnUse">
<stop stop-color="#E07512"/>
<stop offset="1" stop-color="#F5C20B"/>
</linearGradient>
<linearGradient id="paint1_linear_8445_53" x1="9.7783" y1="7.96698" x2="12.4458" y2="4.3184" gradientUnits="userSpaceOnUse">
<stop stop-color="#E07512"/>
<stop offset="1" stop-color="#F5C20B"/>
</linearGradient>
<linearGradient id="paint2_linear_8445_53" x1="5.93883" y1="11.7076" x2="5.87361" y2="4.53314" gradientUnits="userSpaceOnUse">
<stop stop-color="#B8C9E3" stop-opacity="0.7"/>
<stop offset="1" stop-color="white" stop-opacity="0.9"/>
</linearGradient>
<linearGradient id="paint3_linear_8445_53" x1="9.7783" y1="7.96698" x2="12.4458" y2="4.3184" gradientUnits="userSpaceOnUse">
<stop stop-color="#E07512"/>
<stop offset="1" stop-color="#F5C20B"/>
</linearGradient>
<clipPath id="clip0_8445_53">
<rect width="16" height="16" fill="white"/>
</clipPath>
</defs>
</svg>
