<svg width="860" height="718" viewBox="0 0 860 718" fill="none" xmlns="http://www.w3.org/2000/svg">
<g filter="url(#filter0_f_8439_2)">
<ellipse cx="432" cy="519" rx="255" ry="155" fill="#A9BCDB" style="mix-blend-mode:overlay"/>
</g>
<path d="M752.633 596.244C742.04 595.804 732.389 591.529 728.023 584.906C727.819 584.596 727.626 584.282 727.446 583.963C725.852 581.141 725.354 577.897 727.097 575.116C728.84 572.335 733.197 570.223 737.565 570.662C741.933 571.101 745.35 574.588 743.541 577.348C743.141 571.77 742.806 565.909 747.303 561.054C749.778 558.517 753.008 556.848 756.51 556.296C765.572 554.702 771.588 559.826 772.793 564.996C773.682 568.815 772.454 572.696 771.231 576.475C775 572.018 783.963 570.035 790.831 572.14C797.699 574.245 801.504 580.14 799.159 585.04C796.396 590.804 787.185 593.783 778.629 595.358C771.562 596.659 760.968 596.59 752.633 596.244Z" fill="#F2F2F2"/>
<path d="M147.22 625.244C157.813 624.804 167.464 620.529 171.829 613.906C172.034 613.596 172.226 613.282 172.406 612.963C174 610.141 174.498 606.897 172.755 604.116C171.012 601.335 166.655 599.223 162.287 599.662C157.919 600.101 154.501 603.588 156.311 606.348C156.711 600.77 157.046 594.909 152.549 590.054C150.074 587.517 146.845 585.848 143.343 585.296C134.281 583.702 128.265 588.826 127.06 593.996C126.171 597.815 127.399 601.696 128.622 605.475C124.853 601.018 115.89 599.035 109.022 601.14C102.154 603.245 98.3481 609.14 100.694 614.04C103.457 619.804 112.668 622.783 121.224 624.358C128.291 625.659 138.884 625.59 147.22 625.244Z" fill="#F2F2F2"/>
<path d="M346.402 108.211C346.368 108.904 346.389 109.599 346.464 110.288L298.852 150.246L284.652 145.105L274.093 165.519L305.136 180.295L357.188 121.884C359.816 122.361 362.528 122.026 364.961 120.925C367.394 119.823 369.435 118.007 370.811 115.717C372.187 113.428 372.833 110.773 372.664 108.108C372.495 105.442 371.518 102.89 369.864 100.793C368.209 98.696 365.956 97.1521 363.402 96.367C360.849 95.5818 358.117 95.5925 355.57 96.3977C353.023 97.2028 350.782 98.7643 349.144 100.874C347.506 102.985 346.549 105.543 346.401 108.21L346.402 108.211Z" fill="#A0616A"/>
<path d="M282.545 175.312L236.567 158.712C234.477 157.958 232.556 156.799 230.914 155.303C229.271 153.806 227.94 152 226.996 149.989C226.051 147.978 225.512 145.8 225.409 143.58C225.306 141.361 225.642 139.142 226.396 137.052C227.15 134.962 228.309 133.041 229.806 131.399C231.303 129.757 233.108 128.425 235.119 127.481C239.182 125.574 243.835 125.358 248.056 126.881L294.034 143.481C295.441 143.989 296.588 145.035 297.224 146.388C297.86 147.742 297.932 149.293 297.424 150.7L289.765 171.921C289.255 173.327 288.209 174.473 286.856 175.109C285.502 175.744 283.952 175.817 282.545 175.311L282.545 175.312Z" fill="#CCCCCC"/>
<path d="M248.872 336.987H264.238L271.548 277.717H248.87L248.872 336.987Z" fill="#A0616A"/>
<path d="M293.871 351.256L245.578 351.259L245.577 332.6L275.211 332.598C277.661 332.598 280.088 333.081 282.352 334.018C284.615 334.956 286.672 336.33 288.405 338.063C290.138 339.795 291.512 341.852 292.45 344.116C293.388 346.38 293.871 348.806 293.871 351.256Z" fill="#2F2E41"/>
<path d="M210.896 317.136L223.466 325.974L263.537 281.695L244.986 268.652L210.896 317.136Z" fill="#A0616A"/>
<path d="M237.986 351.66L198.481 323.891L209.21 308.628L233.452 325.669C235.456 327.077 237.163 328.867 238.476 330.936C239.789 333.005 240.681 335.312 241.102 337.725C241.523 340.139 241.465 342.612 240.93 345.003C240.395 347.394 239.395 349.656 237.986 351.66Z" fill="#2F2E41"/>
<path d="M282.495 230.221C282.495 230.221 320.842 225.697 313.959 250.58C307.076 275.463 230.382 296.954 230.382 296.954L282.495 230.221Z" fill="#A0616A"/>
<path d="M256.101 103.25C273.103 103.25 286.885 89.468 286.885 72.4664C286.885 55.4649 273.103 41.6824 256.101 41.6824C239.099 41.6824 225.317 55.4649 225.317 72.4664C225.317 89.468 239.099 103.25 256.101 103.25Z" fill="#A0616A"/>
<path d="M157.928 291.859C140.411 271.459 134.282 240.159 162.216 214.123C169.115 207.851 176.927 202.663 185.384 198.737L207.896 135.774C210.234 129.199 214.522 123.493 220.188 119.418C225.854 115.342 232.627 113.092 239.605 112.966C246.379 112.674 253.078 114.486 258.781 118.154C264.484 121.822 268.912 127.165 271.456 133.45C274.205 139.845 274.52 147.024 272.34 153.634C265.638 174.504 256.836 194.641 246.071 213.734L247.235 223.047L304.142 228.105L303.611 228.968C303.334 229.418 275.483 271.853 239.853 300.02C227.67 309.65 215.073 313.642 203.183 313.641C185.154 313.645 168.756 304.466 157.928 291.859Z" fill="#CCCCCC"/>
<path d="M152.558 82.1254C158.004 75.6354 160.34 67.1474 162.22 58.8854C165.193 45.8144 167.494 32.2985 174.1 20.6335C180.706 8.96845 192.845 -0.696559 206.23 0.0394411C219.539 0.771441 230.298 11.4784 236.009 23.6604C237.392 23.1238 238.872 22.8834 240.353 22.9549C241.835 23.0264 243.284 23.4081 244.609 24.0754C248.725 26.3294 250.264 32.7364 246.838 35.9444C250.442 34.2286 254.366 33.2904 258.356 33.191C262.346 33.0916 266.312 33.8332 269.997 35.3674C274.735 37.3846 278.825 40.6696 281.817 44.861C284.808 49.0525 286.586 53.988 286.954 59.1244C287.097 61.2091 286.811 63.301 286.113 65.2706C285.415 67.2401 284.32 69.0454 282.896 70.5744C276.99 76.6544 268.636 74.5575 261.208 73.0085C254.192 71.5455 245.647 71.1504 241.694 77.8354C240.137 80.6209 239.7 83.8956 240.475 86.9914C241.989 93.6644 246.93 98.3124 251.723 102.761L252.507 104.217C235.583 107.517 217.107 95.9594 212.663 79.2984C208.219 62.6374 218.503 43.4164 234.825 37.8584C233.738 37.8934 232.662 37.6373 231.708 37.1166C230.753 36.596 229.955 35.8297 229.396 34.8971C228.837 33.9645 228.538 32.8994 228.529 31.8123C228.52 30.7251 228.802 29.6552 229.345 28.7134C224.828 26.1815 219.717 24.9044 214.54 25.0144C206.109 25.5674 198.813 31.5684 194.425 38.7894C190.037 46.0104 188.05 54.3894 186.038 62.5964C184.026 70.8034 181.848 79.1654 177.156 86.1964C173.907 91.0634 169.564 95.1035 164.476 97.9944C159.388 100.885 153.695 102.547 147.85 102.847C142.006 103.147 136.173 102.076 130.815 99.7211C125.458 97.366 120.725 93.7914 116.995 89.2824C122.89 92.141 129.56 92.989 135.982 91.6964C142.405 90.4038 148.228 87.0419 152.558 82.1254Z" fill="#2F2E41"/>
<path d="M390.029 165.866C382.354 165.866 374.851 163.59 368.469 159.326C362.088 155.062 357.114 149.001 354.177 141.91C351.239 134.819 350.471 127.017 351.968 119.489C353.466 111.961 357.162 105.047 362.589 99.6194C368.016 94.1922 374.931 90.4962 382.458 88.9989C389.986 87.5015 397.789 88.27 404.88 91.2072C411.971 94.1443 418.031 99.1183 422.296 105.5C426.56 111.882 428.836 119.385 428.836 127.06C428.824 137.348 424.732 147.212 417.456 154.487C410.181 161.762 400.318 165.855 390.029 165.866ZM390.029 94.721C383.633 94.721 377.381 96.6176 372.063 100.171C366.745 103.724 362.6 108.775 360.152 114.684C357.704 120.593 357.064 127.096 358.312 133.369C359.56 139.642 362.639 145.404 367.162 149.927C371.685 154.449 377.447 157.529 383.72 158.777C389.993 160.025 396.496 159.385 402.405 156.937C408.314 154.489 413.364 150.344 416.918 145.026C420.471 139.708 422.368 133.456 422.368 127.06C422.358 118.486 418.948 110.266 412.885 104.203C406.823 98.1408 398.603 94.7306 390.029 94.721Z" fill="#EEAC16"/>
<path d="M388.756 78.5516C387.898 78.5516 387.075 78.2108 386.469 77.6044C385.862 76.9979 385.522 76.1754 385.522 75.3177V38.1281C385.522 37.2704 385.862 36.4479 386.469 35.8414C387.075 35.2349 387.898 34.8942 388.756 34.8942C389.613 34.8942 390.436 35.2349 391.042 35.8414C391.649 36.4479 391.99 37.2704 391.99 38.1281V75.3177C391.989 76.1754 391.649 76.9979 391.042 77.6044C390.436 78.2108 389.613 78.5516 388.756 78.5516Z" fill="#EEAC16"/>
<path d="M338.287 129.021H301.098C300.24 129.021 299.417 128.68 298.811 128.074C298.204 127.467 297.864 126.645 297.864 125.787C297.864 124.929 298.204 124.107 298.811 123.5C299.417 122.894 300.24 122.553 301.098 122.553H338.287C339.145 122.553 339.967 122.894 340.574 123.5C341.18 124.107 341.521 124.929 341.521 125.787C341.521 126.645 341.18 127.467 340.574 128.074C339.967 128.68 339.145 129.021 338.287 129.021Z" fill="#EEAC16"/>
<path d="M474.11 129.021H436.92C436.063 129.021 435.24 128.68 434.634 128.074C434.027 127.467 433.687 126.645 433.687 125.787C433.687 124.929 434.027 124.107 434.634 123.5C435.24 122.894 436.063 122.553 436.92 122.553H474.11C474.968 122.553 475.79 122.894 476.397 123.5C477.003 124.107 477.344 124.929 477.344 125.787C477.344 126.645 477.003 127.467 476.397 128.074C475.79 128.68 474.968 129.021 474.11 129.021Z" fill="#EEAC16"/>
<path d="M435.899 93.6614C435.255 93.6615 434.626 93.4693 434.092 93.1096C433.558 92.7499 433.144 92.239 432.902 91.6424C432.66 91.0458 432.602 90.3905 432.734 89.7606C432.867 89.1306 433.185 88.5546 433.647 88.1064L449.221 72.9965C449.526 72.7 449.886 72.4664 450.281 72.3092C450.676 72.152 451.098 72.0742 451.523 72.0803C451.948 72.0864 452.368 72.1762 452.758 72.3447C453.149 72.5132 453.502 72.757 453.798 73.0621C454.094 73.3673 454.327 73.7278 454.483 74.1231C454.64 74.5184 454.717 74.9407 454.71 75.3657C454.703 75.7908 454.613 76.2104 454.444 76.6005C454.275 76.9905 454.03 77.3434 453.725 77.6389L438.15 92.7487C437.548 93.3352 436.74 93.6627 435.899 93.6614Z" fill="#EEAC16"/>
<path d="M340.926 93.6614C340.085 93.6626 339.277 93.3351 338.674 92.7488L323.1 77.6389C322.794 77.3434 322.55 76.9905 322.381 76.6005C322.211 76.2104 322.121 75.7908 322.114 75.3657C322.107 74.9407 322.184 74.5184 322.341 74.1231C322.497 73.7278 322.73 73.3673 323.026 73.0621C323.322 72.757 323.676 72.5132 324.066 72.3447C324.456 72.1762 324.876 72.0864 325.301 72.0803C325.726 72.0742 326.148 72.152 326.543 72.3092C326.938 72.4664 327.299 72.7 327.603 72.9965L343.177 88.1064C343.639 88.5546 343.957 89.1306 344.09 89.7606C344.223 90.3905 344.165 91.0458 343.923 91.6424C343.681 92.239 343.266 92.7499 342.732 93.1096C342.199 93.4693 341.569 93.6615 340.926 93.6614Z" fill="#EEAC16"/>
<path d="M328.585 182.036C327.95 182.036 327.329 181.848 326.799 181.497C326.269 181.146 325.855 180.646 325.607 180.061C325.36 179.476 325.29 178.83 325.407 178.206C325.524 177.581 325.822 177.005 326.265 176.549L341.839 160.51C342.437 159.896 343.254 159.544 344.111 159.531C344.969 159.519 345.796 159.848 346.411 160.445C347.026 161.042 347.379 161.859 347.392 162.717C347.405 163.574 347.077 164.401 346.48 165.017L330.906 181.055C330.604 181.366 330.244 181.613 329.845 181.781C329.447 181.949 329.018 182.036 328.585 182.036Z" fill="#EEAC16"/>
<path d="M454.707 185.27C454.275 185.27 453.848 185.184 453.45 185.017C453.053 184.849 452.693 184.603 452.393 184.294L433.585 165.022C433.287 164.718 433.053 164.358 432.895 163.964C432.736 163.57 432.657 163.148 432.662 162.723C432.667 162.298 432.756 161.878 432.923 161.487C433.09 161.097 433.333 160.743 433.637 160.446C433.941 160.149 434.301 159.915 434.696 159.758C435.091 159.6 435.512 159.522 435.937 159.527C436.362 159.533 436.782 159.622 437.172 159.79C437.563 159.958 437.916 160.201 438.213 160.505L457.021 179.778C457.465 180.233 457.766 180.809 457.884 181.434C458.003 182.059 457.934 182.706 457.687 183.292C457.44 183.878 457.025 184.379 456.495 184.73C455.965 185.082 455.343 185.27 454.707 185.27Z" fill="#EEAC16"/>
<path d="M388.756 217.608C387.898 217.608 387.075 217.268 386.469 216.661C385.862 216.055 385.522 215.232 385.522 214.375V177.185C385.522 176.76 385.605 176.34 385.768 175.947C385.93 175.555 386.169 175.199 386.469 174.898C386.769 174.598 387.126 174.36 387.518 174.197C387.91 174.035 388.331 173.951 388.756 173.951C389.18 173.951 389.601 174.035 389.993 174.197C390.386 174.36 390.742 174.598 391.042 174.898C391.343 175.199 391.581 175.555 391.743 175.947C391.906 176.34 391.99 176.76 391.99 177.185V214.375C391.989 215.232 391.649 216.055 391.042 216.661C390.436 217.268 389.613 217.608 388.756 217.608Z" fill="#EEAC16"/>
<path d="M347.945 151.202C347.62 151.815 347.344 152.452 347.119 153.108L287.036 169.041L276.369 158.352L258.134 172.341L279.953 198.911L351.896 168.163C354.073 169.712 356.669 170.562 359.34 170.599C362.011 170.636 364.63 169.859 366.849 168.371C369.067 166.884 370.781 164.756 371.76 162.271C372.74 159.786 372.941 157.062 372.335 154.46C371.728 151.858 370.345 149.503 368.367 147.707C366.39 145.911 363.913 144.76 361.265 144.406C358.617 144.052 355.924 144.513 353.545 145.727C351.165 146.941 349.212 148.85 347.944 151.201L347.945 151.202Z" fill="#A0616A"/>
<path d="M261.621 184.798L227.058 150.23C225.486 148.66 224.238 146.794 223.387 144.741C222.536 142.688 222.097 140.487 222.097 138.264C222.096 136.042 222.533 133.841 223.384 131.787C224.234 129.733 225.481 127.868 227.052 126.296C228.624 124.724 230.49 123.478 232.544 122.627C234.597 121.777 236.798 121.34 239.021 121.34C241.244 121.341 243.444 121.779 245.498 122.63C247.551 123.482 249.416 124.729 250.987 126.301L285.552 160.866C286.61 161.924 287.204 163.358 287.204 164.854C287.204 166.349 286.611 167.784 285.553 168.841L285.552 168.842L269.599 184.796C268.54 185.852 267.106 186.445 265.611 186.445C264.115 186.445 262.681 185.852 261.622 184.796L261.621 184.798Z" fill="#CCCCCC"/>
<g filter="url(#filter1_bi_8439_2)">
<mask id="path-25-inside-1_8439_2" fill="white">
<path fill-rule="evenodd" clip-rule="evenodd" d="M265.654 624.947C263.839 625.027 262.014 625.068 260.18 625.068C192.149 625.068 137 568.955 137 499.737C137 430.518 192.149 374.406 260.18 374.406C270.956 374.406 281.41 375.814 291.372 378.459C317.19 310.891 381.731 263 457.267 263C550.928 263 627.686 336.634 634.674 430.11C634.847 430.109 635.02 430.108 635.194 430.108C688.106 430.108 731 473.752 731 527.588C731 579.556 691.033 622.025 640.667 624.912V625.068H457.371C457.336 625.068 457.301 625.068 457.267 625.068C457.232 625.068 457.197 625.068 457.162 625.068H265.654V624.947Z"/>
</mask>
<path fill-rule="evenodd" clip-rule="evenodd" d="M265.654 624.947C263.839 625.027 262.014 625.068 260.18 625.068C192.149 625.068 137 568.955 137 499.737C137 430.518 192.149 374.406 260.18 374.406C270.956 374.406 281.41 375.814 291.372 378.459C317.19 310.891 381.731 263 457.267 263C550.928 263 627.686 336.634 634.674 430.11C634.847 430.109 635.02 430.108 635.194 430.108C688.106 430.108 731 473.752 731 527.588C731 579.556 691.033 622.025 640.667 624.912V625.068H457.371C457.336 625.068 457.301 625.068 457.267 625.068C457.232 625.068 457.197 625.068 457.162 625.068H265.654V624.947Z" fill="url(#paint0_linear_8439_2)"/>
<path d="M265.654 624.947H266.654V623.901L265.609 623.948L265.654 624.947ZM291.372 378.459L291.116 379.425L291.985 379.656L292.306 378.816L291.372 378.459ZM634.674 430.11L633.677 430.184L633.747 431.115L634.68 431.11L634.674 430.11ZM640.667 624.912L640.61 623.913L639.667 623.968V624.912H640.667ZM640.667 625.068V626.068H641.667V625.068H640.667ZM265.654 625.068H264.654V626.068H265.654V625.068ZM265.609 623.948C263.809 624.028 261.999 624.068 260.18 624.068V626.068C262.029 626.068 263.869 626.027 265.698 625.946L265.609 623.948ZM260.18 624.068C192.718 624.068 138 568.42 138 499.737H136C136 569.491 191.581 626.068 260.18 626.068V624.068ZM138 499.737C138 431.054 192.718 375.406 260.18 375.406V373.406C191.581 373.406 136 429.982 136 499.737H138ZM260.18 375.406C270.869 375.406 281.236 376.802 291.116 379.425L291.629 377.492C281.584 374.825 271.044 373.406 260.18 373.406V375.406ZM292.306 378.816C317.984 311.615 382.168 264 457.267 264V262C381.295 262 316.396 310.168 290.438 378.102L292.306 378.816ZM457.267 264C550.386 264 626.727 337.211 633.677 430.184L635.671 430.035C628.646 336.056 551.47 262 457.267 262V264ZM634.68 431.11C634.851 431.109 635.022 431.108 635.194 431.108V429.108C635.019 429.108 634.844 429.109 634.669 429.11L634.68 431.11ZM635.194 431.108C687.538 431.108 730 474.288 730 527.588H732C732 473.216 688.675 429.108 635.194 429.108V431.108ZM730 527.588C730 579.038 690.435 621.058 640.61 623.913L640.725 625.91C691.631 622.993 732 580.074 732 527.588H730ZM639.667 624.912V625.068H641.667V624.912H639.667ZM640.667 624.068H457.371V626.068H640.667V624.068ZM457.371 624.068C457.353 624.068 457.336 624.068 457.318 624.068C457.301 624.068 457.284 624.068 457.267 624.068V626.068C457.284 626.068 457.302 626.068 457.319 626.068C457.337 626.068 457.354 626.068 457.371 626.068V624.068ZM457.267 624.068C457.25 624.068 457.232 624.068 457.215 624.068C457.198 624.068 457.18 624.068 457.162 624.068V626.068C457.179 626.068 457.197 626.068 457.214 626.068C457.231 626.068 457.249 626.068 457.267 626.068V624.068ZM457.162 624.068H265.654V626.068H457.162V624.068ZM266.654 625.068V624.947H264.654V625.068H266.654Z" fill="white" fill-opacity="0.1" style="mix-blend-mode:overlay" mask="url(#path-25-inside-1_8439_2)"/>
</g>
<defs>
<filter id="filter0_f_8439_2" x="133" y="320" width="598" height="398" filterUnits="userSpaceOnUse" color-interpolation-filters="sRGB">
<feFlood flood-opacity="0" result="BackgroundImageFix"/>
<feBlend mode="normal" in="SourceGraphic" in2="BackgroundImageFix" result="shape"/>
<feGaussianBlur stdDeviation="22" result="effect1_foregroundBlur_8439_2"/>
</filter>
<filter id="filter1_bi_8439_2" x="121" y="247" width="626" height="394.068" filterUnits="userSpaceOnUse" color-interpolation-filters="sRGB">
<feFlood flood-opacity="0" result="BackgroundImageFix"/>
<feGaussianBlur in="BackgroundImageFix" stdDeviation="8"/>
<feComposite in2="SourceAlpha" operator="in" result="effect1_backgroundBlur_8439_2"/>
<feBlend mode="normal" in="SourceGraphic" in2="effect1_backgroundBlur_8439_2" result="shape"/>
<feColorMatrix in="SourceAlpha" type="matrix" values="0 0 0 0 0 0 0 0 0 0 0 0 0 0 0 0 0 0 127 0" result="hardAlpha"/>
<feOffset dy="4"/>
<feGaussianBlur stdDeviation="9"/>
<feComposite in2="hardAlpha" operator="arithmetic" k2="-1" k3="1"/>
<feColorMatrix type="matrix" values="0 0 0 0 1 0 0 0 0 1 0 0 0 0 1 0 0 0 1 0"/>
<feBlend mode="normal" in2="shape" result="effect2_innerShadow_8439_2"/>
</filter>
<linearGradient id="paint0_linear_8439_2" x1="347.774" y1="625.068" x2="344.94" y2="299.208" gradientUnits="userSpaceOnUse">
<stop stop-color="#B8C9E3" stop-opacity="0.7"/>
<stop offset="1" stop-color="white" stop-opacity="0.9"/>
</linearGradient>
</defs>
</svg>
